<svg enable-background="new 0 0 200.7 117.5" viewBox="0 0 200.7 117.5" xmlns="http://www.w3.org/2000/svg"><g fill="#4c4f56"><path d="m3.9 37.2c-.9.8-1.6 1.7-2.2 2.6-1.1 1.8-1.6 3.5-1.6 4.9-.1 1.4.1 2.4.2 3.1.2.7.3 1 .3 1s.1.3.4 1c.3.6.7 1.6 1.7 2.7.9 1.1 2.3 2.2 4.2 3 1 .4 2.1.6 3.3.7s2.6-.1 3.9-.5c7.2-2.4 1.7-.6 9-2.9 1.3-.4 2.5-1.1 3.4-1.9s1.7-1.7 2.3-2.5c1.1-1.8 1.6-3.5 1.6-4.9.1-1.4-.1-2.4-.2-3.1-.2-.7-.3-1-.3-1s-.1-.3-.4-1c-.3-.6-.7-1.6-1.7-2.7-.9-1.1-2.3-2.2-4.2-3-1-.4-2.1-.6-3.3-.7s-2.6.1-3.9.5c-7.2 2.4-1.7.6-9 2.9-1.3.4-2.5 1.1-3.5 1.8zm15.6 1.3c.4-.1.8-.1 1.1-.1.6.1 1.2.4 1.6.9.5.5.7 1 .9 1.4s.3.7.3.7.1.3.2.7.2 1.1.1 1.7-.3 1.2-.8 1.7c-.2.2-.6.4-.9.5-.4.2-1 .3-1.1.4-7.2 2.4-1.7.6-9 2.9-.1 0-.7.2-1.1.4-.4.1-.8.1-1.1.1-.6-.1-1.2-.4-1.6-.9-.5-.5-.7-1-.9-1.4-.2-.5-.3-.7-.3-.7s-.1-.3-.2-.7-.2-1.1-.1-1.7.3-1.2.8-1.7c.2-.2.6-.4.9-.5.4-.2 1-.3 1.1-.3 7.2-2.4 1.7-.6 9-2.9.1-.2.7-.4 1.1-.5z"/><path d="m30.9 53.9c-1.7-.8-3.7 0-4.5 1.7s0 3.7 1.7 4.5c11.4 5.2 10.5 4.8 21.9 9.9 1.7.8 3.7 0 4.5-1.7s0-3.7-1.7-4.5c-11.3-5.1-10.5-4.8-21.9-9.9z"/><path d="m154.1 71c-1.2-.2-2.4-.1-3.4 0-2.1.4-3.7 1.2-4.8 2.1s-1.7 1.7-2.2 2.3c-.4.6-.6.9-.6.9s-.2.3-.5.9-.7 1.6-.8 3c-.2 1.4-.1 3.2.6 5.2.4 1 .9 2 1.7 2.9s1.8 1.8 3 2.5c6.6 3.8 1.6.9 8.2 4.7 1.2.7 2.5 1.1 3.7 1.3s2.4.1 3.4 0c2.1-.4 3.7-1.2 4.8-2.1s1.7-1.7 2.2-2.3c.4-.6.6-.9.6-.9s.2-.3.5-.9.7-1.6.8-3c.2-1.4.1-3.2-.6-5.2-.4-1-.9-2-1.7-2.9s-1.8-1.8-3-2.5c-6.6-3.8-1.6-.9-8.2-4.7-1.2-.7-2.5-1.1-3.7-1.3zm9.5 12.3c.4.2.6.5.8.7.4.5.5 1.2.4 1.8 0 .7-.3 1.2-.4 1.7-.2.4-.3.6-.3.6s-.1.2-.4.6c-.3.3-.7.9-1.2 1.2-.5.4-1.1.6-1.8.6-.3 0-.7-.1-1-.3-.4-.2-.9-.5-1-.6-6.6-3.8-1.6-.9-8.2-4.7-.1 0-.6-.3-1-.6-.4-.2-.6-.5-.8-.7-.4-.5-.5-1.2-.4-1.8 0-.6.3-1.2.4-1.7.2-.4.3-.6.3-.6s.1-.2.4-.6c.3-.3.7-.9 1.2-1.2.5-.4 1.1-.6 1.8-.6.3 0 .7.1 1 .3.4.2.9.5 1 .6 6.6 3.8 1.6.9 8.2 4.7.1.1.7.4 1 .6z"/><path d="m63.5 43.4c3.3-.8 2.9-.7 3.6-.8-1.7-1.4-3.5-2.9-5.2-4.5.5 1.8 1 3.6 1.6 5.3z"/><path d="m80.3 29.4h.2c.1 0 .7 0 1.1.1.1 0 .2 0 .3.1.9-1.9 1.8-3.8 2.7-5.6 0 0-.1 0-.1-.1-1.1-.5-2.3-.8-3.7-.9-.3 0-.5 0-.7 0 .2 2 .2 4.2.2 6.4z"/><path d="m82.9 6.2c-.3.8-.6 1.5-.9 2.3.8.6 1.6 1.3 2.4 1.9.2-1.1.5-2.1.7-3.1-.7-.4-1.4-.8-2.2-1.1z"/><path d="m82.9 54.8c-.5-.6-1.1-1.1-1.8-1.7-.2-.2-.5-.3-.7-.4-.2 1-.4 2.1-.7 3.1.8.7 1.7 1.3 2.5 2 .3-1 .5-2 .7-3z"/><path d="m76.6 35.2c-.3 1.5-.7 3.1-1.2 4.6 0 .1 0 .2.1.3 0 .4.1.6.1.7 1.1-.4 2.1-.8 3.2-1.2.1-.8.3-1.6.4-2.4-1-.7-1.8-1.3-2.6-2z"/><path d="m75.6 46.5c-.5 1.2-.9 2.5-1.3 3.8.3 0 .5.1.7.1.6.3 1 .7 1.3 1.3.3.5.4.9.5 1.3.4-1.5.8-3 1.2-4.6-.9-.6-1.7-1.2-2.4-1.9z"/><path d="m78.6 63.2v.1c.8.6 1.5 1.2 2.3 1.7.2-.9.5-1.7.8-2.6-1 .3-2 .6-3.1.8z"/><path d="m83.2 51.8c-.3-.6-.6-1.3-1.2-2-.4 1.5-.7 3-1 4.5.9-.3 1.8-.7 2.7-1.1-.1-.4-.3-.9-.5-1.4z"/><path d="m78.4 69.2c0 .1-.1.1 0 0-.1.1-.1.1 0 0 0 .1 0 .1 0 0z"/><path d="m100.7 46.2c.1-.7.1-1 .1-1s0-.3 0-1c0-.3-.1-.8-.1-1.2-1.1.4-2.1.8-3.2 1.1-.2.9-.5 1.8-.7 2.8 1 .7 2.1 1.5 3.1 2.3 0 0 .1-.1.1-.1.5-1.3.6-2.3.7-2.9z"/><path d="m90.2 64.1c0 .3-.1.7-.2 1 .7 1.1 1.4 2.1 2 3.2.1-1.2.3-2.3.5-3.4-.7-.5-1.5-.9-2.3-1.3z"/><path d="m89.7 76.4c.5-.5 1-1 1.5-1.5-1.1-.8-2.1-1.5-3.2-2.3-.3 1.3-.6 2.7-.9 4.1.4.7.7 1.5 1.1 2.2 1.5-1.3 2.5-2.7 3-3.9 0 0 0 0 0-.1-.5.5-1 1-1.5 1.5z"/><path d="m62.6 62.4c-1.6-2.3-3.3-4.6-4.9-6.7-.5 0-1.5 0-4.2 0-.9 0-1.7.1-2.4.3.8 1.2 1.4 2.5 2.1 3.8 2.2.8 4.2 1.7 6.3 2.6z"/><path d="m52.1 61.1c.4.9.9 1.8 1.3 2.6h5c-2-.9-4.1-1.8-6.3-2.6z"/><path d="m50 56c-.5.1-1 .3-1.4.4-1 .4-2 1-2.7 1.5 2.1.5 4.2 1.1 6.2 1.8-.6-1.2-1.3-2.5-2.1-3.7z"/><path d="m50.3 70.4c-.4 0-.8-.1-1.1-.2-.6-.3-1-.8-1.3-1.4s-.4-1.2-.5-1.7c0-.5 0-.7 0-.7s0-.3 0-.7c.1-.4.2-1.1.5-1.7s.7-1.1 1.3-1.4c.3-.1.7-.2 1.1-.2h1.1 1c-.4-.9-.9-1.8-1.3-2.6-2-.7-4.1-1.3-6.2-1.8-.1.1-.1.1-.2.2-1.6 1.4-2.6 2.9-3.1 4.2s-.7 2.4-.8 3c0 .7-.1 1-.1 1s0 .3.1 1 .2 1.8.8 3c.5 1.3 1.5 2.8 3.1 4.2.8.7 1.8 1.3 2.9 1.7s2.4.7 3.8.7h5.4c.8-2.2 1.7-4.5 2.5-6.7-5.2 0-.8 0-7.9 0 0 .1-.6.1-1.1.1z"/><path d="m66.6 69.5c-.3.6-.7 1.1-1.3 1.4-.3.1-.6.1-1 .2-.4 0-.9 0-1 0 .1 2.2.3 4.5.5 6.7 1.2-.1 2.3-.3 3.3-.7.5-.2 1-.5 1.5-.7.2-1.1.3-2.2.5-3.4-.7-1.3-1.4-2.6-2.2-3.9-.2.1-.2.2-.3.4z"/><path d="m57.3 87.4c-.6-.1-1.1-.2-1.5-.3-1.2 2.1-2.5 4.1-3.7 6.2.6.1 1.6.3 4 .7.2 0 .4.1.6.1.2-2.2.4-4.5.6-6.7.1 0 .1 0 0 0z"/><path d="m75.3 81.5c.5-.3 1-.6 1.4-.9.1-.1.1-.1.2-.2-.3-.7-.7-1.4-1-2.1-.2 1.1-.4 2.2-.6 3.2z"/><path d="m72 62.7c.1-.2.1-.3.2-.5-.2-.3-.4-.6-.6-.9-.1 0-.3 0-.4 0 0 .3 0 .7.1 1 .2.1.4.3.7.4z"/><path d="m65.8 60.8c-.2 0-.4 0-.6 0-.4 0-.7 0-1 .1.5.3 1 .6 1.6.9 0-.3 0-.6 0-1z"/><path d="m72 62.9c-.2-.1-.4-.3-.7-.4 0 .7 0 1.3-.1 2 .3-.5.5-1 .8-1.6z"/><path d="m67.9 65.4c0-.7-.1-1.4-.2-2.1-.5-.3-1-.5-1.5-.8-1.2.4-2 1.5-2 2.9 0 .6.2 1.2.6 1.7.9-.2 1.8-.5 2.7-.7.2-.3.3-.6.4-1z"/><path d="m63.2 68.9c.5.6 1.1 1 1.9 1.1.2-.6.4-1.2.6-1.8-.8.2-1.7.4-2.5.7z"/><path d="m72.8 64.8c-.3-.1-.5-.3-.8-.4-.2.6-.4 1.2-.6 1.8 0 .3 0 .5.1.8.8-.2 1.6-.5 2.3-.7-.3-.5-.6-1-1-1.5z"/><path d="m68.1 95.8c0 .7.1 1.5.1 2.2 1.6 0 3-.1 4.2-.1-.6-1-1.2-1.9-1.8-2.8-.8.2-1.6.5-2.5.7z"/><path d="m69.7 69.8c-.2.6-.4 1.3-.6 1.9h.4.8c-.1-.7-.1-1.4-.2-2-.1 0-.2 0-.4.1z"/><path d="m71.2 64.8c-.1.3-.2.6-.3.9.1 0 .2-.1.4-.1 0-.3-.1-.5-.1-.8z"/><path d="m72.2 62.3c-.1.2-.1.3-.2.5.3.1.5.3.8.4-.2-.3-.4-.6-.6-.9z"/><path d="m72.5 61.4c-.3 0-.6 0-.9 0 .2.3.3.5.5.8.2-.3.3-.6.4-.8z"/><path d="m73.1 63.4c.3.5.6.9.9 1.4.3-.1.6-.2 1-.3-.7-.3-1.3-.7-1.9-1.1z"/><path d="m79.7 68.6c.5.9 1 1.7 1.5 2.6.6 0 1.1 0 1.6.1.1-.4.2-.9.3-1.3-.8-.6-1.5-1.1-2.3-1.6-.5 0-.8.1-1.1.2z"/><path d="m96.7 56.6c-.1.5-.1.9-.2 1.4.8 0 1.6-.1 2.3-.1-.7-.5-1.4-.9-2.1-1.3z"/><path d="m77.7 61.9c-1 .4-2 .8-3 1.2.9.5 1.7.9 2.6 1.4.1-.8.2-1.7.4-2.6z"/><path d="m77.2 117.3c-.4-1.4-1-3.1-1.7-5.5-.3 0-.6 0-1-.1-.2.3-.5.6-.7.9-.2.8-.4 1.5-.6 2.3.6.9 1.2 1.8 1.8 2.6.9-.1 1.6-.2 2.2-.2z"/><path d="m88 3.2c.4.5.8 1 1.2 1.5.5-1.5 1-3.1 1.3-4.7-.8 1.1-1.6 2-2.5 3.2z"/><path d="m115.1 72.3c-3.2 0-5.5 0-7.4 0-1.8 2.2-3.5 4.6-5.4 6.7h12.8c1.9 0 3.4-1.5 3.4-3.4 0-1.8-1.5-3.3-3.4-3.3z"/><path d="m110 63.6c-1.6.7-3.2 1.3-4.9 1.7-.2.8-.4 1.7-.7 2.5.7.5 1.3 1 2 1.4.4 0 .9 0 1.3.1 1.7-1.8 3.3-3.7 5-5.6-1-.1-1.9-.1-2.7-.1z"/><path d="m128.4 77.9c-1.9.1-3.3 1.6-3.3 3.5.1 1.9 1.6 3.3 3.5 3.3 12.5-.4 11.6-.3 24.1-.7 1.9-.1 3.3-1.6 3.3-3.5-.1-1.9-1.6-3.3-3.5-3.3-12.5.4-11.6.4-24.1.7z"/><path d="m161.7 82.8c-1.6-1-3.7-.4-4.6 1.1-1 1.6-.4 3.7 1.1 4.6 10.7 6.5 9.9 6 20.6 12.4 1.6 1 3.7.4 4.6-1.1 1-1.6.4-3.7-1.1-4.6-10.7-6.4-9.9-5.9-20.6-12.4z"/><path d="m107.1 98.8c-.8 1-1.3 2-1.7 3-.7 2-.7 3.8-.5 5.2s.6 2.4.9 3 .5.9.5.9.2.3.6.9c.4.5 1.1 1.4 2.2 2.2s2.7 1.7 4.8 2c1 .1 2.2.2 3.4 0s2.5-.6 3.7-1.3c6.6-3.9 1.5-.9 8.1-4.8 1.2-.7 2.2-1.6 2.9-2.6.8-1 1.3-2 1.7-3 .7-2 .7-3.8.5-5.2s-.6-2.4-.9-3-.5-.9-.5-.9-.2-.3-.6-.9c-.4-.5-1.1-1.4-2.2-2.2s-2.7-1.7-4.8-2c-1-.1-2.2-.2-3.4 0s-2.5.6-3.7 1.3c-6.6 3.9-1.5.9-8.1 4.8-1.2.8-2.2 1.7-2.9 2.6zm15.4-2.2c.4-.2.7-.3 1-.4.7 0 1.3.2 1.8.5.5.4.9.9 1.2 1.2.3.4.4.6.4.6s.1.2.3.6.4 1 .5 1.7c.1.6 0 1.3-.4 1.8-.2.3-.5.5-.8.7s-.9.5-1 .6c-6.6 3.9-1.5.9-8.1 4.8-.1 0-.6.4-1 .6s-.7.3-1 .4c-.7 0-1.3-.2-1.8-.5-.5-.4-.9-.9-1.2-1.2-.3-.4-.4-.6-.4-.6s-.1-.2-.3-.6-.4-1-.5-1.7c-.1-.6 0-1.3.4-1.8.2-.3.5-.5.8-.7s.9-.5 1-.6c6.6-3.9 1.5-.9 8.1-4.8.1 0 .6-.4 1-.6z"/></g><path d="m6.2 37.9c1.4-.8 2.8-1.6 4.3-2.2s3-1.2 4.6-1.6 3.2-.6 4.9-.6c1.6 0 3.4.4 4.6 1.6-1.4-.8-3-.9-4.6-.8s-3.1.4-4.7.8c-1.5.4-3.1.8-4.6 1.3-1.4.5-2.9 1.1-4.5 1.5z" fill="#fff"/><path d="m120.9 92.7c-1.4.9-2.8 1.7-4.1 2.5-1.4.8-2.7 1.7-4 2.6s-2.5 1.9-3.6 3-2.1 2.4-2.4 4c0-1.7.8-3.2 1.8-4.5s2.3-2.4 3.6-3.3 2.8-1.7 4.2-2.4c1.4-.8 2.9-1.3 4.5-1.9z" fill="#fff"/><path d="m166.8 79.9c-1.4-.8-2.8-1.6-4.2-2.4s-2.8-1.5-4.2-2.2-2.9-1.3-4.4-1.7-3.1-.6-4.7-.2c1.4-.9 3.2-.9 4.8-.6s3.2.9 4.7 1.5c1.5.7 2.9 1.5 4.2 2.5s2.6 2 3.8 3.1z" fill="#fff"/><path d="m192.5 94.1c-1.2-.6-2.3-1.2-3.4-1.8s-2.3-1.1-3.4-1.6c-2.3-.9-4.8-1.4-7.3-.7 1.1-.7 2.5-1 3.8-1s2.6.3 3.9.8c1.2.5 2.4 1.1 3.5 1.8 1 .7 1.9 1.6 2.9 2.5z" fill="#fff"/><path d="m36.9 58.7c2.7.8 5.2 1.8 7.7 2.9s4.9 2.3 7.3 3.8c-2.7-.8-5.2-1.8-7.7-2.9s-4.9-2.3-7.3-3.8z" fill="#fff"/><path d="m129.7 79.8c2.7-.5 5.4-.7 8.2-.8 2.7-.1 5.5-.1 8.2.2-2.7.5-5.4.7-8.2.8-2.7 0-5.5.1-8.2-.2z" fill="#fff"/><path d="m160.3 84.5c2.6 1 5 2.3 7.4 3.6 2.4 1.4 4.7 2.8 6.9 4.5-2.6-1-5-2.3-7.4-3.6-2.3-1.4-4.7-2.8-6.9-4.5z" fill="#fff"/><path d="m200.7 97.2c-2.8.3-5.6.3-8 1.5-1.2.5-2.3 1.4-3.2 2.4s-1.6 2.2-2.4 3.4c.4-1.4.9-2.7 1.7-3.9s2-2.2 3.4-2.8c1.3-.6 2.8-.9 4.2-.9 1.5-.1 2.9 0 4.3.3z" fill="#fff"/><path d="m110.4 58.4h5.2v.3h-5.2z" fill="#f68f33"/><path d="m115.6 54.1v-.2c0-3.6-1.4-7.4-3.9-10.2-2.7-3.1-6.1-4.8-9.7-4.8h-1.5c-3.6 0-7.1 1.7-9.7 4.8-2.5 2.9-3.9 6.6-3.9 10.2v4.8h5.1v-2c0-5.5 3.7-11.8 8.6-11.8h1.3c4 0 7.3 4.5 8.3 9.2z" fill="#f68f33"/><path d="m87.5 51.9s2.2-13.1 15.8-12.6c0 .1-12.1 1-15.8 12.6z" fill="#f68f33"/><path d="m115.6 54.4v-.5c0-3.6-1.4-7.4-3.9-10.2-.2-.3-.5-.5-.7-.8.1.3.2.6.2.9.1.8-.3 1.7-1 2.3-.6.5-1.4.5-2.1.2-.5-.2-.9-.5-1.4-.8s-1.1-.6-1.6-.8c-1.1-.4-2.3-.6-3.5-.7-2.1 0-4.3.5-6.1 1.8-1.6 1.2-2.8 2.8-3.7 4.6-.6 1.2-.8 2.7-1.8 3.8-.4.4-.9.8-1.5.6-.7-.1-1.2-.6-1.4-1.2-.2-.4-.2-.8-.3-1.2-.1.5-.1 1-.1 1.5v4.8h5.3v-2c0-5.5 3.7-11.8 8.6-11.8h1.3c4.1 0 7.5 4.7 8.3 9.5z" fill="#f68f33" opacity=".5"/><path d="m86.9 57h5.2v1.7h-5.2z" fill="#f68f33" opacity=".5"/><path d="m119.5 59.3c-.1-.3-.3-.6-.6-.8-.4-.3-.8-.4-1.2-.5h-33.2c-.4.1-.9.2-1.2.5s-.4.6-.5.9v.2 7.1c0 27.3 36.8 28 36.8 0v-7.2s0-.1-.1-.2z" fill="#f68f33"/><path d="m118.8 59.7c-.1-.3-.3-.5-.5-.7-.3-.3-.7-.4-1.1-.4h-32c-.4.1-.8.2-1.1.5-.3.2-.4.5-.5.9v.2 6.6c0 25.3 35.3 25.9 35.3 0v-6.8c-.1-.1-.1-.2-.1-.3z" fill="#fbb035"/><path d="m117.3 60.2c-.1-.2-.3-.5-.5-.6-.3-.2-.7-.3-1-.4h-29.5c-.4.1-.8.2-1.1.4-.2.2-.4.4-.4.7v.2 5.6c0 21.5 32.5 22.1 32.5 0v-5.6c0-.2 0-.3 0-.3z" fill="#ffd074"/><path d="m105.6 67.3c0-2.3-1.9-4.1-4.3-4.1s-4.3 1.8-4.3 4.1c0 1.7 1.1 3.2 2.7 3.8l-3.1 9.4h9l-2.8-9.3c1.6-.6 2.8-2.1 2.8-3.9z" fill="#ad561f"/><path d="m98.1 67.3c0-2.1 1.6-3.8 3.7-4.1-.2 0-.4 0-.6 0-2.4 0-4.3 1.8-4.3 4.1 0 1.7 1.1 3.2 2.7 3.8l-3.1 9.4h1.2l3.1-9.4c-1.6-.6-2.7-2.1-2.7-3.8z" fill="#ad561f"/><path d="m105.6 67.3c0-2.1-1.6-3.8-3.7-4.1-2.1.3-3.7 2-3.7 4.1 0 1.7 1.1 3.2 2.7 3.8l-3.1 9.4h7.9l-2.8-9.3c1.5-.6 2.7-2.1 2.7-3.9z" fill="#5e2a00"/><path d="m85.9 60.7s-.4 1.1.1 2.1 6-.5 5.9-1.8c-.2-1.3-5.1-2.3-6-.3z" fill="#f68f33"/><path d="m85.8 65.4s-.2 1 0 1.8c.2.9 3-.4 2.9-1.6 0-1.1-2.5-2-2.9-.2z" fill="#f68f33"/></svg>