<?xml version="1.0" encoding="utf-8"?>
<!-- Generator: Adobe Illustrator 25.4.1, SVG Export Plug-In . SVG Version: 6.00 Build 0)  -->
<svg version="1.1" id="Layer_1" xmlns="http://www.w3.org/2000/svg" xmlns:xlink="http://www.w3.org/1999/xlink" x="0px" y="0px"
	 viewBox="0 0 91.8 121.5" style="enable-background:new 0 0 91.8 121.5;" xml:space="preserve">
<style type="text/css">
	.st0{fill:#616263;}
	.st1{opacity:0.6;fill:#616263;}
	.st2{fill:#323535;}
	.st3{fill:#77787A;}
	.st4{fill:#AAAAAA;}
	.st5{fill:#AD561F;}
	.st6{fill:#6C6E6E;}
</style>
<g>
	<path class="st0" d="M22.9,49.6v-4.9c0-13.6,9.3-29.5,21.4-29.5h3.2c12,0,21.4,15.9,21.4,29.5v4.9h12.9v-12c0-9-3.5-18.3-9.7-25.6
		C65.3,4.3,56.7,0,47.7,0H44c-9,0-17.6,4.3-24.3,12c-6.2,7.2-9.7,16.5-9.7,25.6v12H22.9z"/>
	<path class="st1" d="M71.9,12c-0.6-0.7-1.1-1.3-1.7-1.9c0.3,0.7,0.5,1.5,0.6,2.3c0.1,2.1-0.8,4.3-2.4,5.6c-1.5,1.2-3.4,1.2-5.1,0.5
		c-1.2-0.5-2.3-1.3-3.4-2c-1.3-0.8-2.6-1.5-4.1-2c-2.8-1.1-5.7-1.6-8.7-1.7c-5.3-0.1-10.8,1.4-15.2,4.5c-4.1,2.9-7.1,7-9.2,11.5
		c-1.5,3.1-2.1,6.7-4.4,9.4c-1,1.1-2.3,1.9-3.8,1.6c-1.7-0.4-2.9-1.4-3.5-3c-0.4-1-0.6-2-0.7-3c-0.1,1.2-0.2,2.5-0.2,3.7v12h12.9
		v-4.9c0-13.6,9.3-29.5,21.4-29.5h3.2c12,0,21.4,15.9,21.4,29.5v4.9h12.9v-12C81.6,28.6,78.1,19.2,71.9,12z"/>
	<rect x="68.8" y="45.3" class="st1" width="12.9" height="4.3"/>
	<rect x="10.1" y="45.3" class="st1" width="12.9" height="4.3"/>
	<path class="st2" d="M91.5,51.1c-0.3-0.7-0.8-1.4-1.4-1.9c-0.9-0.7-1.9-1-3-1.2h-83c-1.1,0.2-2.2,0.5-3,1.3
		c-0.7,0.6-1.1,1.4-1.2,2.3c0,0.1,0,0.3,0,0.5v17.8c0,68.1,91.8,69.8,91.8,0V52C91.7,51.7,91.6,51.4,91.5,51.1z"/>
	<path class="st3" d="M89.6,52.1c-0.3-0.7-0.7-1.3-1.3-1.8c-0.9-0.6-1.8-0.9-2.8-1.1H5.8c-1.1,0.2-2.1,0.5-2.9,1.2
		c-0.7,0.6-1.1,1.3-1.2,2.1c0,0.1,0,0.3,0,0.5v16.4c0,63,88.2,64.6,88.2,0V53C89.8,52.7,89.7,52.4,89.6,52.1z"/>
	<path class="st4" d="M85.9,53.3c-0.3-0.6-0.7-1.1-1.2-1.5c-0.8-0.5-1.7-0.8-2.6-1H8.6c-1,0.1-1.9,0.4-2.6,1c-0.6,0.5-1,1.1-1.1,1.8
		c0,0.1,0,0.2,0,0.4v14c0,53.7,81.2,55.1,81.2,0V54C86,53.7,86,53.5,85.9,53.3z"/>
	<path class="st5" d="M56.7,71.1c0-5.6-4.8-10.2-10.8-10.2c-6,0-10.8,4.6-10.8,10.2c0,4.3,2.8,8,6.9,9.5l-7.8,23.4h22.6l-7.1-23.3
		C53.8,79.2,56.7,75.5,56.7,71.1z"/>
	<g>
		<path class="st6" d="M38,71.1c0-5.2,4.1-9.5,9.3-10.1c-0.5-0.1-1-0.1-1.5-0.1c-6,0-10.8,4.6-10.8,10.2c0,4.3,2.8,8,6.9,9.5
			l-7.8,23.4h2.9l7.8-23.4C40.9,79.1,38,75.4,38,71.1z"/>
		<path class="st2" d="M56.7,71.1c0-5.2-4.1-9.5-9.4-10.1c-5.3,0.7-9.3,5-9.3,10.1c0,4.3,2.8,8,6.9,9.5l-7.8,23.4h19.6l-7.1-23.3
			C53.8,79.2,56.7,75.5,56.7,71.1z"/>
	</g>
	<path class="st4" d="M11.7,32.8c0,0,5.5-32.6,39.4-31.4C51,1.4,20.9,3.6,11.7,32.8z"/>
	<path class="st4" d="M7.7,54.7c0,0-1.1,2.7,0.2,5.1c1.2,2.4,14.9-1.2,14.6-4.4C22.2,52.2,9.8,49.7,7.7,54.7z"/>
	<path class="st4" d="M7.4,66.3c0,0-0.5,2.4,0.1,4.6c0.6,2.1,7.4-1,7.3-3.9C14.6,64,8.4,61.9,7.4,66.3z"/>
</g>
</svg>
